<?xml version="1.0" encoding="UTF-8" standalone="no"?>
<!DOCTYPE svg PUBLIC "-//W3C//DTD SVG 1.1//EN" "http://www.w3.org/Graphics/SVG/1.1/DTD/svg11.dtd">
<svg width="100%" height="100%" viewBox="0 0 1920 320" version="1.1" xmlns="http://www.w3.org/2000/svg" xmlns:xlink="http://www.w3.org/1999/xlink" xml:space="preserve" xmlns:serif="http://www.serif.com/" style="fill-rule:evenodd;clip-rule:evenodd;stroke-linecap:round;stroke-linejoin:round;stroke-miterlimit:1.5;">
    <g transform="matrix(0.998638,0.0521688,-0.0521688,0.998638,27.5723,-50.2528)">
        <g opacity="0.89">
            <g transform="matrix(1,0,0,1,0,-380)">
                <path d="M-93.969,602.213C117.394,447.474 429.661,483.518 664.526,559.108C797.3,601.84 920.783,638.534 1064.25,634.716C1295.05,628.573 1495.85,529.886 1715.9,478.952C1826.68,453.31 1935.64,465.605 2046.78,480.077" style="fill:none;stroke:rgb(30,30,30);stroke-width:99.09px;"/>
            </g>
            <g transform="matrix(1.0811,0,0,1.44161,-93.9695,-609.937)">
                <path d="M1936,464.07L1676.14,496.293L1040.03,599.973L324.32,500.874L0,549.529L0,1080L1920,1080L1936,464.07Z" style="fill:rgb(32,32,32);"/>
            </g>
        </g>
    </g>
    <g transform="matrix(0.997892,-0.0648922,0.0648922,0.997892,-67.9819,105.749)">
        <g opacity="0.89">
            <g transform="matrix(1,0,0,1,0,-380)">
                <path d="M-93.969,602.213C117.394,447.474 429.661,483.518 664.526,559.108C797.3,601.84 920.783,638.534 1064.25,634.716C1295.05,628.573 1495.85,529.886 1715.9,478.952C1826.68,453.31 1935.64,465.605 2046.78,480.077" style="fill:none;stroke:rgb(30,30,30);stroke-width:99.09px;"/>
            </g>
            <g transform="matrix(1.0811,0,0,1.44161,-93.9695,-609.937)">
                <path d="M1936,464.07L1676.14,496.293L1040.03,599.973L324.32,500.874L0,549.529L0,1080L1920,1080L1936,464.07Z" style="fill:rgb(32,32,32);"/>
            </g>
        </g>
    </g>
    <g>
        <g transform="matrix(1,0,0,1,0,-380)">
            <path d="M-93.969,602.213C117.394,447.474 429.661,483.518 664.526,559.108C797.3,601.84 920.783,638.534 1064.25,634.716C1295.05,628.573 1495.85,529.886 1715.9,478.952C1826.68,453.31 1935.64,465.605 2046.78,480.077" style="fill:none;stroke:rgb(17,17,17);stroke-width:99.09px;"/>
        </g>
        <g transform="matrix(1.0811,0,0,1.44161,-93.9695,-609.937)">
            <path d="M1936,464.07L1676.14,496.293L1040.03,599.973L324.32,500.874L0,549.529L0,1080L1920,1080L1936,464.07Z" style="fill:rgb(17,17,17);"/>
        </g>
    </g>
</svg>
