<?xml version="1.0" encoding="UTF-8" standalone="no"?>
<!DOCTYPE svg PUBLIC "-//W3C//DTD SVG 1.1//EN" "http://www.w3.org/Graphics/SVG/1.1/DTD/svg11.dtd">
<svg preserveAspectRatio="none" width="100%" height="100%" viewBox="0 0 1920 240" version="1.1" xmlns="http://www.w3.org/2000/svg" xmlns:xlink="http://www.w3.org/1999/xlink" xml:space="preserve" xmlns:serif="http://www.serif.com/" style="fill-rule:evenodd;clip-rule:evenodd;stroke-linejoin:round;stroke-miterlimit:2;">
    <g transform="matrix(1,0,0,1,0,-80)">
        <g transform="matrix(1,0,0,1,0,80)">
            <path d="M1188.67,206.018C1152.45,209.49 1115.74,211.065 1078.35,210.108C940.753,206.587 824.497,164.543 699.468,116.972C582.435,72.443 413.982,32.497 271.423,28.635C123.462,24.628 6.575,69.721 0,71.812L0,240L1920,240L1920,17.992C1907.17,17.836 1742.53,13.767 1636.44,45.702C1482.84,91.939 1340.83,162.458 1188.67,206.018Z" style="fill:rgb(32,32,32);fill-opacity:0.89;"/>
        </g>
        <g transform="matrix(1,0,0,1,-1.13687e-13,80)">
            <path d="M0,114.733L0,240L1920,240L1920,35.065C1920,35.065 1807.76,25.404 1704.73,50.683C1487.92,100.866 1290.33,199.136 1062.93,205.189C925.336,208.85 807.353,171.961 679.705,131.945C551.433,91.735 402.557,57.09 261.095,64.783C125.31,72.168 13.853,103.005 0,114.733Z" style="fill:rgb(17,17,17);"/>
        </g>
    </g>
</svg>
