<?xml version="1.0" encoding="UTF-8" standalone="no"?>
<!DOCTYPE svg PUBLIC "-//W3C//DTD SVG 1.1//EN" "http://www.w3.org/Graphics/SVG/1.1/DTD/svg11.dtd">
<svg preserveAspectRatio="none" width="100%" height="100%" viewBox="0 0 1920 320" version="1.1" xmlns="http://www.w3.org/2000/svg" xmlns:xlink="http://www.w3.org/1999/xlink" xml:space="preserve" xmlns:serif="http://www.serif.com/" style="fill-rule:evenodd;clip-rule:evenodd;stroke-linejoin:round;stroke-miterlimit:2;">
    <g transform="matrix(-1.02604,-1.25654e-16,1.25654e-16,-1.02604,1965.38,175.383)">
        <g transform="matrix(-0.974621,1.19357e-16,-1.19357e-16,-0.974621,1915.5,170.932)">
            <path d="M-0,0L1920,-0C1920,-0 1920,89.179 1920,89.179C1752.11,126.461 1706.96,135.47 1535.52,133.834C1444.07,127.653 1354.74,101.696 1266.06,80.359C1266.06,80.359 1266.06,80.359 1266.06,80.359C1166.22,56.338 1020.64,29.768 962.016,25.164C945.718,23.884 924.177,16.394 909.387,16.54C702.23,18.586 514.432,108.953 305.567,106.449C242.475,105.692 181.897,87.193 120.794,73.591C120.794,73.591 120.793,73.591 120.793,73.591C80.398,61.561 0,54.098 0,54.098L-0,0Z" style="fill:rgb(32,32,32);fill-opacity:0.89;"/>
        </g>
        <g transform="matrix(-0.974621,1.19357e-16,-1.19357e-16,-0.974621,1915.5,170.932)">
            <path d="M-0,-0L1920,-0C1920,-0 1920,63.34 1920,63.34C1753.18,105.127 1708.75,115.336 1537.33,118.315C1445.73,114.598 1355.74,91.055 1266.52,72.113C1266.52,72.113 1266.52,72.113 1266.52,72.113C1152.41,47.888 1036.01,26.859 919.153,23.031C712.096,16.248 512.715,89.924 304.147,78.523C241.144,75.079 181.409,54.016 120.941,37.823C120.941,37.823 120.94,37.823 120.94,37.822C81.094,24.083 -0,12.682 -0,12.682L-0,-0Z" style="fill:rgb(17,17,17);"/>
        </g>
    </g>
</svg>
