<?xml version="1.0" encoding="UTF-8" standalone="no"?>
<!DOCTYPE svg PUBLIC "-//W3C//DTD SVG 1.1//EN" "http://www.w3.org/Graphics/SVG/1.1/DTD/svg11.dtd">
<svg width="100%" height="100%" viewBox="0 0 1920 320" version="1.1" xmlns="http://www.w3.org/2000/svg" xmlns:xlink="http://www.w3.org/1999/xlink" xml:space="preserve" xmlns:serif="http://www.serif.com/" style="fill-rule:evenodd;clip-rule:evenodd;stroke-linecap:round;stroke-linejoin:round;stroke-miterlimit:1.5;">
    <g transform="matrix(0.998638,0.0521688,-0.0521688,0.998638,16.5723,43.7472)">
        <g opacity="0.89">
            <g transform="matrix(1,1.38778e-17,-1.38778e-17,1,1.42109e-14,-380)">
                <path d="M-93.969,602.213C117.394,447.474 429.661,483.518 664.526,559.108C797.3,601.84 920.783,638.534 1064.25,634.716C1295.05,628.573 1495.85,529.886 1715.9,478.952C1826.68,453.31 1935.64,465.605 2046.78,480.077" style="fill:none;stroke:rgb(30,30,30);stroke-width:99.09px;"/>
            </g>
            <g transform="matrix(0.993148,-0.116863,0.116863,0.993148,-131.694,-216.622)">
                <path d="M-93.969,602.213C117.394,447.474 429.661,483.518 664.526,559.108C797.3,601.84 920.783,638.534 1064.25,634.716C1295.05,628.573 1495.85,529.886 1715.9,478.952C1826.68,453.31 1935.64,465.605 2046.78,480.077" style="fill:none;stroke:rgb(30,30,30);stroke-width:99.09px;"/>
            </g>
        </g>
    </g>
    <path d="M-104.97,365.752L-104.97,1041L1970.74,1041L1986.39,237.75C2000.69,239.487 2015.02,241.337 2029.38,243.207C2056.5,246.738 2081.38,227.59 2084.91,200.474C2088.44,173.359 2069.29,148.478 2042.18,144.947C1925.14,129.706 1810.39,117.68 1693.73,144.683C1476.92,194.866 1279.33,293.136 1051.93,299.189C914.336,302.85 796.045,266.929 668.705,225.945C419.992,145.898 89.59,112.373 -134.236,276.236C-156.3,292.389 -161.099,323.416 -144.946,345.48C-135.257,358.714 -120.218,365.737 -104.97,365.752Z" style="fill:rgb(17,17,17);"/>
</svg>
